<?xml version="1.0" encoding="UTF-8" standalone="no"?>
<!-- Created with Inkscape (http://www.inkscape.org/) -->

<svg
   xmlns:dc="http://purl.org/dc/elements/1.1/"
   xmlns:cc="http://creativecommons.org/ns#"
   xmlns:rdf="http://www.w3.org/1999/02/22-rdf-syntax-ns#"
   xmlns:svg="http://www.w3.org/2000/svg"
   xmlns="http://www.w3.org/2000/svg"
   xmlns:xlink="http://www.w3.org/1999/xlink"
   xmlns:sodipodi="http://sodipodi.sourceforge.net/DTD/sodipodi-0.dtd"
   xmlns:inkscape="http://www.inkscape.org/namespaces/inkscape"
   width="55.950539mm"
   height="63.77261mm"
   viewBox="0 0 55.950538 63.77261"
   version="1.1"
   id="svg8"
   inkscape:version="0.92.1 r15371"
   sodipodi:docname="logo.svg">
  <defs
     id="defs2">
    <linearGradient
       inkscape:collect="always"
       id="linearGradient6039">
      <stop
         style="stop-color:#000080;stop-opacity:1;"
         offset="0"
         id="stop6035" />
      <stop
         style="stop-color:#000080;stop-opacity:0;"
         offset="1"
         id="stop6037" />
    </linearGradient>
    <inkscape:perspective
       sodipodi:type="inkscape:persp3d"
       inkscape:vp_x="27.845556 : 160.6146 : 1"
       inkscape:vp_y="0 : -291.90409 : 0"
       inkscape:vp_z="99.808249 : 160.6146 : 1"
       inkscape:persp3d-origin="63.826903 : 175.06386 : 1"
       id="perspective3696" />
    <linearGradient
       inkscape:collect="always"
       xlink:href="#linearGradient6039"
       id="linearGradient6043"
       x1="45.636692"
       y1="118.91913"
       x2="72.969894"
       y2="126.80359"
       gradientUnits="userSpaceOnUse" />
    <linearGradient
       inkscape:collect="always"
       xlink:href="#linearGradient6039"
       id="linearGradient6048"
       gradientUnits="userSpaceOnUse"
       x1="45.636692"
       y1="118.91913"
       x2="71.628082"
       y2="116.41121"
       gradientTransform="translate(0.01835003,0.00465964)" />
    <linearGradient
       inkscape:collect="always"
       xlink:href="#linearGradient6039"
       id="linearGradient6053"
       gradientUnits="userSpaceOnUse"
       x1="45.636692"
       y1="118.91913"
       x2="71.499908"
       y2="118.91913" />
    <linearGradient
       inkscape:collect="always"
       xlink:href="#linearGradient6039"
       id="linearGradient6058"
       gradientUnits="userSpaceOnUse"
       x1="45.636692"
       y1="118.91913"
       x2="71.499908"
       y2="118.91913" />
    <linearGradient
       inkscape:collect="always"
       xlink:href="#linearGradient6039"
       id="linearGradient6060"
       gradientUnits="userSpaceOnUse"
       x1="45.636692"
       y1="118.91913"
       x2="60.861507"
       y2="135.08125" />
    <linearGradient
       inkscape:collect="always"
       xlink:href="#linearGradient6039"
       id="linearGradient6064"
       gradientUnits="userSpaceOnUse"
       x1="45.636692"
       y1="118.91913"
       x2="72.969894"
       y2="126.80359" />
    <linearGradient
       inkscape:collect="always"
       xlink:href="#linearGradient6039"
       id="linearGradient6066"
       gradientUnits="userSpaceOnUse"
       x1="45.636692"
       y1="118.91913"
       x2="72.969894"
       y2="126.80359" />
  </defs>
  <sodipodi:namedview
     id="base"
     pagecolor="#ffffff"
     bordercolor="#666666"
     borderopacity="1.0"
     inkscape:pageopacity="0.0"
     inkscape:pageshadow="2"
     inkscape:zoom="0.7"
     inkscape:cx="-6.1963101"
     inkscape:cy="267.62823"
     inkscape:document-units="mm"
     inkscape:current-layer="layer1"
     showgrid="false"
     inkscape:snap-text-baseline="true"
     inkscape:window-width="1920"
     inkscape:window-height="1017"
     inkscape:window-x="-8"
     inkscape:window-y="-8"
     inkscape:window-maximized="1" />
  <metadata
     id="metadata5">
    <rdf:RDF>
      <cc:Work
         rdf:about="">
        <dc:format>image/svg+xml</dc:format>
        <dc:type
           rdf:resource="http://purl.org/dc/dcmitype/StillImage" />
        <dc:title></dc:title>
      </cc:Work>
    </rdf:RDF>
  </metadata>
  <g
     inkscape:label="Capa 1"
     inkscape:groupmode="layer"
     id="layer1"
     transform="translate(-67.533991,-130.29014)">
    <text
       xml:space="preserve"
       style="font-style:normal;font-weight:normal;font-size:10.58333302px;line-height:1.25;font-family:sans-serif;letter-spacing:0px;word-spacing:0px;fill:#000000;fill-opacity:1;stroke:none;stroke-width:0.26458332"
       x="82.398804"
       y="112.54762"
       id="text3682"><tspan
         sodipodi:role="line"
         id="tspan3680"
         x="82.398804"
         y="122.20312"
         style="font-style:normal;font-variant:normal;font-weight:normal;font-stretch:condensed;font-size:10.58333302px;font-family:'Agency FB';-inkscape-font-specification:'Agency FB, Condensed';font-variant-ligatures:normal;font-variant-caps:normal;font-variant-numeric:normal;font-feature-settings:normal;text-align:start;writing-mode:lr-tb;text-anchor:start;stroke-width:0.26458332" /></text>
    <g
       id="g6127"
       transform="matrix(4.2001418,0,0,3.9284759,-117.69005,-311.42552)">
      <g
         transform="matrix(0.45528651,0,0,1.2526397,24.858923,-28.406669)"
         style="fill:url(#linearGradient6043);fill-opacity:1"
         id="g4555">
        <g
           id="text3686"
           style="font-style:normal;font-weight:normal;font-size:9.89347172px;line-height:1.25;font-family:sans-serif;letter-spacing:0px;word-spacing:0px;fill:url(#linearGradient6064);fill-opacity:1;stroke:none;stroke-width:0.2473368"
           transform="scale(0.96208138,-1.0394131)"
           aria-label="D">
          <path
             inkscape:connector-curvature="0"
             id="path6055"
             style="font-size:17.14868546px;fill:url(#linearGradient6058);fill-opacity:1;stroke-width:0.2473368"
             d="m 57.969091,-114.39733 q 0,1.6998 -0.745231,3.08141 -0.736858,1.38161 -1.967745,2.14358 -0.854085,0.52753 -1.909131,0.76198 -1.046673,0.23446 -2.763216,0.23446 h -3.148391 v -12.46797 h 3.114897 q 1.825398,0 2.897191,0.26795 1.080166,0.25957 1.825397,0.72011 1.272754,0.79547 1.984491,2.11847 0.711738,1.32299 0.711738,3.14001 z m -1.73329,-0.0251 q 0,-1.46534 -0.510777,-2.47014 -0.510776,-1.00481 -1.523955,-1.58257 -0.736858,-0.41867 -1.565823,-0.57777 -0.828964,-0.16746 -1.984491,-0.16746 h -1.557449 v 9.62101 h 1.557449 q 1.197394,0 2.084972,-0.17584 0.895952,-0.17584 1.641183,-0.65312 0.929445,-0.59451 1.389981,-1.56583 0.46891,-0.97131 0.46891,-2.42828 z" />
        </g>
        <g
           id="text3690"
           style="font-style:normal;font-weight:normal;font-size:11.01165962px;line-height:1.25;font-family:sans-serif;letter-spacing:0px;word-spacing:0px;fill:url(#linearGradient6066);fill-opacity:1;stroke:none;stroke-width:0.27529147"
           transform="scale(1.1394145,0.87764371)"
           aria-label="R">
          <path
             inkscape:connector-curvature="0"
             id="path6050"
             style="font-size:17.61865425px;fill:url(#linearGradient6053);fill-opacity:1;stroke-width:0.27529147"
             d="m 58.532257,142.60281 h -2.210935 l -4.284224,-5.09289 h -2.400197 v 5.09289 h -1.703366 v -12.80965 h 3.587392 q 1.161386,0 1.935643,0.15485 0.774257,0.14625 1.393663,0.53338 0.696832,0.43874 1.08396,1.10976 0.395732,0.66242 0.395732,1.68617 0,1.38506 -0.696832,2.32277 -0.696831,0.92911 -1.918437,1.40226 z m -3.983124,-9.20505 q 0,-0.55059 -0.197866,-0.97213 -0.189263,-0.43014 -0.636611,-0.72264 -0.369923,-0.24948 -0.877492,-0.34411 -0.507568,-0.10324 -1.195797,-0.10324 h -2.004466 v 4.83481 h 1.720571 q 0.808669,0 1.410869,-0.13765 0.6022,-0.14624 1.02374,-0.53337 0.387129,-0.36132 0.567789,-0.82588 0.189263,-0.47315 0.189263,-1.19579 z" />
        </g>
        <g
           id="text3694"
           style="font-style:normal;font-weight:normal;font-size:8.41557884px;line-height:1.25;font-family:sans-serif;letter-spacing:0px;word-spacing:0px;fill:url(#linearGradient6060);fill-opacity:1;stroke:none;stroke-width:0.21038944"
           transform="scale(1.0426082,0.95913311)"
           aria-label="S">
          <path
             sodipodi:nodetypes="ccccscccccscscccccscssccccscsccccccc"
             inkscape:connector-curvature="0"
             id="path6045"
             style="font-size:13.46492386px;fill:url(#linearGradient6048);fill-opacity:1;stroke-width:0.21038944"
             d="m 68.596274,127.63729 c 0,0.38133 -0.08985,0.75828 -0.269561,1.13084 -0.175325,0.37257 -0.422971,0.68815 -0.742938,0.94676 -0.350649,0.28051 -0.76047,0.49967 -1.229463,0.65746 -0.46461,0.15779 -1.025649,0.23669 -1.683116,0.23669 -0.705681,0 -1.341232,-0.0657 -1.906654,-0.19724 -0.561039,-0.13149 -1.133035,-0.32654 -1.715989,-0.58515 v -1.63051 h 0.09205 c 0.495291,0.41201 1.067288,0.72979 1.715989,0.95332 0.648701,0.22354 1.257953,0.33531 1.827758,0.33531 0.806493,0 1.433278,-0.15122 1.880355,-0.45365 0.451461,-0.30243 0.677191,-0.70568 0.677191,-1.20974 0,-0.43393 -0.107386,-0.75389 -0.322158,-0.9599 -0.21039,-0.20601 -0.532549,-0.36599 -0.966477,-0.47995 -0.328733,-0.0877 -0.685957,-0.15999 -1.071671,-0.21697 -0.381331,-0.057 -0.786769,-0.12932 -1.216314,-0.21696 -0.867857,-0.18409 -1.512174,-0.49749 -1.932953,-0.94018 -0.416396,-0.44707 -0.624594,-1.02784 -0.624594,-1.74229 0,-0.81964 0.346266,-1.49025 1.038798,-2.01184 0.692532,-0.52597 1.571346,-0.78896 2.636443,-0.78896 0.688149,0 1.319317,0.0657 1.893505,0.19724 0.574188,0.13149 1.082629,0.29367 1.525323,0.48652 v 1.53847 h -0.09204 c -0.372565,-0.31558 -0.863473,-0.57637 -1.472726,-0.78238 -0.60487,-0.21039 -1.096907,-0.45492 -1.732458,-0.45492 -0.696915,0 -1.386127,0.28397 -1.811289,0.57326 -0.420779,0.28929 -0.631169,0.66185 -0.631169,1.1177 0,0.40763 0.105195,0.72759 0.315585,0.9599 0.210389,0.23231 0.580762,0.40982 1.111119,0.53255 0.280519,0.0613 0.679383,0.13584 1.19659,0.22353 0.517207,0.0877 0.955519,0.17752 1.314934,0.26957 0.727597,0.19285 1.275486,0.48433 1.643667,0.87443 0.368181,0.39009 0.552272,0.93579 0.552272,1.63709 z" />
        </g>
      </g>
      <ellipse
         ry="1.6036202"
         rx="1.8708864"
         cy="124.0098"
         cx="45.97036"
         id="path6068"
         style="fill:#d40000;fill-opacity:1;stroke-width:0.10551985" />
      <rect
         y="122.40617"
         x="45.941574"
         height="1.5049374"
         width="1.8996685"
         id="rect6070"
         style="fill:#000080;fill-opacity:1;stroke-width:0.13930449" />
      <path
         inkscape:connector-curvature="0"
         d="m 44.19188,124.75097 c 0.06773,-0.079 0.143343,-0.15242 0.230375,-0.20987 0.113112,-0.23475 0.433343,-0.21114 0.629269,-0.32968 0.05505,-0.0327 0.117724,-0.0402 0.180279,-0.0447 0.06674,0.003 0.120897,0.0317 0.176229,0.0652 0.05103,0.0333 0.0841,0.0861 0.117591,0.1357 0.02843,0.0573 0.06531,0.105 0.12105,0.13714 0.05789,0.0256 0.121795,0.0268 0.184007,0.0284 0.0026,-5.2e-4 0.05163,-0.0121 0.05437,-0.0132 0.0077,-0.003 0.0284,-0.0177 0.02111,-0.0136 -0.676442,0.38112 -0.50382,0.3139 -0.37129,0.20227 0.04428,-0.0451 0.07444,-0.0977 0.09807,-0.15566 0.02773,-0.0609 0.03935,-0.12602 0.04578,-0.19204 0.0059,-0.0659 0.0021,-0.13208 0.0068,-0.19797 0.006,-0.0264 0.0065,-0.0375 0.01984,-0.0613 0.01209,-0.0216 0.03659,-0.0487 0.05818,-0.0615 0.148674,-0.0879 0.299077,-0.17286 0.448617,-0.25929 0.06849,-0.0164 0.140073,-0.0162 0.210195,-0.0174 0.06931,-0.004 0.139777,0.007 0.208135,-0.006 0.08787,-0.0414 0.18547,-0.0536 0.277873,-0.0829 0.101082,-0.0393 0.21281,-0.0607 0.306057,-0.11749 0.18682,-0.10649 -0.240321,0.13882 -0.360897,0.2075 -0.01167,0.007 0.02299,-0.0139 0.03419,-0.0214 0.03799,-0.0252 0.07312,-0.0542 0.108953,-0.0823 0.0733,-0.0593 0.149135,-0.11483 0.226136,-0.16919 0.05489,-0.0451 0.11058,-0.089 0.167992,-0.13083 0.04334,-0.0386 0.08289,-0.0828 0.117856,-0.12918 0.02109,-0.0326 0.01053,-0.0168 0.03159,-0.0475 0,0 0.454342,-0.20021 0.454342,-0.20021 v 0 c -0.01931,0.0333 -0.0087,0.0174 -0.03195,0.0476 -0.02866,0.0543 -0.0735,0.0957 -0.111562,0.14311 -0.05212,0.0505 -0.119994,0.0815 -0.169526,0.13555 -0.0757,0.0557 -0.15471,0.10646 -0.226751,0.16696 -0.196363,0.15784 -0.377457,0.28017 -0.626036,0.38912 -0.09973,0.0429 -0.204615,0.0739 -0.307758,0.10737 -0.09567,0.0276 -0.191947,0.055 -0.28806,0.0796 -0.07006,0.003 -0.140213,4e-5 -0.210306,0.002 -0.06697,0.003 -0.137584,0.003 -0.197795,0.0362 0.78717,-0.46027 0.463426,-0.29181 0.334904,-0.19025 -0.01871,0.0148 -0.01889,0.0212 -0.02909,0.0421 -0.01368,0.064 -0.0013,0.13096 -0.0085,0.19594 -0.0047,0.07 -0.01278,0.14024 -0.0392,0.20596 -0.02516,0.06 -0.04404,0.12122 -0.08993,0.16986 -0.0097,0.0145 -0.01662,0.0285 -0.0322,0.0378 -0.179305,0.10715 -0.325559,0.27179 -0.532471,0.26945 -0.06908,-0.005 -0.138473,-0.0129 -0.198771,-0.05 -0.05668,-0.0403 -0.100568,-0.0911 -0.131823,-0.15356 -0.03031,-0.0438 -0.05873,-0.0909 -0.106747,-0.11724 -0.04851,-0.0287 -0.09976,-0.0465 -0.157157,-0.0391 -0.06021,0.009 -0.116456,0.0273 -0.169177,0.0586 -0.178348,0.0745 -0.534106,0.22034 0.218734,-0.15718 -0.09136,0.0458 -0.168326,0.11632 -0.234987,0.19294 0,0 -0.456504,0.19396 -0.456504,0.19396 z"
         id="path6097"
         style="fill:#ffc500;fill-opacity:0.66331661;stroke-width:0.26458332" />
    </g>
  </g>
</svg>
